HIERARCHY
ROOT Hips
{
    OFFSET 0.000000 0.000000 0.000000
    CHANNELS 6 Xposition Yposition Zposition Zrotation Xrotation Yrotation
    JOINT Spine
    {
        OFFSET -0.000000 14.517291 0.000000
        CHANNELS 3 Zrotation Xrotation Yrotation
        JOINT Spine1
        {
            OFFSET -0.000000 37.558300 0.000000
            CHANNELS 3 Zrotation Xrotation Yrotation
            JOINT Neck
            {
                OFFSET -0.000000 37.404057 3.400369
                CHANNELS 3 Zrotation Xrotation Yrotation
                JOINT Head
                {
                    OFFSET -0.000000 24.785618 -3.540803
                    CHANNELS 3 Zrotation Xrotation Yrotation
                    End Site
                    {
                        OFFSET -0.000000 35.408028 0.000000
                    }
                }
            }
            JOINT LeftShoulder
            {
                OFFSET 6.992933 33.973492 -0.192664
                CHANNELS 3 Zrotation Xrotation Yrotation
                JOINT LeftArm
                {
                    OFFSET 21.527611 0.000000 0.000000
                    CHANNELS 3 Zrotation Xrotation Yrotation
                    JOINT LeftForeArm
                    {
                        OFFSET 56.353916 0.000000 0.000000
                        CHANNELS 3 Zrotation Xrotation Yrotation
                        JOINT LeftHand
                        {
                            OFFSET 47.774071 0.000000 0.000000
                            CHANNELS 3 Zrotation Xrotation Yrotation
                            End Site
                            {
                                OFFSET 26.556021 0.000000 0.000000
                            }
                        }
                    }
                }
            }
            JOINT RightShoulder
            {
                OFFSET -7.065357 33.973492 -0.192664
                CHANNELS 3 Zrotation Xrotation Yrotation
                JOINT RightArm
                {
                    OFFSET -21.527611 0.000000 0.000000
                    CHANNELS 3 Zrotation Xrotation Yrotation
                    JOINT RightForeArm
                    {
                        OFFSET -56.353916 0.000000 0.000000
                        CHANNELS 3 Zrotation Xrotation Yrotation
                        JOINT RightHand
                        {
                            OFFSET -47.774071 0.000000 0.000000
                            CHANNELS 3 Zrotation Xrotation Yrotation
                            End Site
                            {
                                OFFSET -26.556021 0.000000 0.000000
                            }
                        }
                    }
                }
            }
        }
    }
    JOINT LeftUpLeg
    {
        OFFSET 17.704014 0.000000 0.000000
        CHANNELS 3 Zrotation Xrotation Yrotation
        JOINT LeftLeg
        {
            OFFSET -0.000000 -81.181816 0.000000
            CHANNELS 3 Zrotation Xrotation Yrotation
            JOINT LeftFoot
            {
                OFFSET -0.000000 -62.821102 0.000000
                CHANNELS 3 Zrotation Xrotation Yrotation
                JOINT LeftToeBase
                {
                    OFFSET -0.000000 -11.507608 26.556021
                    CHANNELS 3 Zrotation Xrotation Yrotation
                    End Site
                    {
                        OFFSET -0.000000 0.000000 7.081605
                    }
                }
            }
        }
    }
    JOINT RightUpLeg
    {
        OFFSET -17.704014 0.000000 0.000000
        CHANNELS 3 Zrotation Xrotation Yrotation
        JOINT RightLeg
        {
            OFFSET -0.000000 -81.181816 0.000000
            CHANNELS 3 Zrotation Xrotation Yrotation
            JOINT RightFoot
            {
                OFFSET -0.000000 -62.821102 0.000000
                CHANNELS 3 Zrotation Xrotation Yrotation
                JOINT RightToeBase
                {
                    OFFSET -0.000000 -11.507608 26.556021
                    CHANNELS 3 Zrotation Xrotation Yrotation
                    End Site
                    {
                        OFFSET -0.000000 0.000000 7.081605
                    }
                }
            }
        }
    }
}
MOTION
Frames:    6
Frame Time:    0.008333
26.681835    157.551682    -101.744820    -7.349378    -5.863753    18.933479    -2.298766    2.869237    -2.143882    -13.591517    -1.874301    -0.955857    11.042309    2.862865    2.643321    6.647828    -5.593721    2.653838    5.960253    -5.887105    -16.512293    -20.598415    -33.316154    -32.877991    -27.808914    -44.084011    -96.231468    -57.123978    -43.352509    -55.137768    -11.456892    2.127743    -6.935799    16.864735    22.496212    11.509356    15.498269    12.145435    0.439658    24.088507    16.033165    18.889862    16.310831    2.008263    8.158610    -12.254568    33.218311    -13.706929    9.555590    -29.470263    46.243382    0.000000    0.000000    0.000000    -1.591981    -26.402330    -4.314820    8.744717    17.445704    -11.023045    0.437655    24.558485    -6.085288    0.000000    0.000000    0.000000    
26.929342    157.560379    -101.828148    -7.156187    -5.783043    19.087626    -2.157412    2.824625    -2.171960    -13.398199    -1.840222    -0.956666    11.126665    2.916929    2.666020    6.695082    -5.433400    2.672361    6.049842    -5.852502    -16.482374    -20.665295    -33.277519    -32.920773    -27.661430    -44.131123    -96.190689    -57.202194    -43.263466    -55.028168    -11.466204    2.097540    -6.939113    16.841482    22.479475    11.431073    15.495957    12.178562    0.398934    24.113659    16.077599    18.900856    15.988848    2.040794    8.044255    -12.235696    33.006813    -13.754864    9.649803    -29.355104    46.251968    0.000000    0.000000    0.000000    -1.892537    -26.359819    -4.375488    8.671170    17.380043    -11.040759    0.477946    24.459774    -6.140120    0.000000    0.000000    0.000000    
27.164463    157.565125    -101.909279    -6.980061    -5.688751    19.229370    -1.997368    2.755654    -2.192695    -13.246987    -1.828201    -0.958140    11.235023    3.036156    2.685339    6.775662    -5.346334    2.701340    6.161540    -5.767918    -16.498131    -20.691307    -33.369274    -32.908451    -27.727877    -43.963120    -96.176590    -57.142036    -43.127716    -55.125275    -11.460264    2.116102    -6.960682    16.828051    22.471779    11.400089    15.471051    12.189288    0.367199    24.158705    16.094229    18.874012    15.675829    2.051729    7.944484    -12.180174    32.824398    -13.831606    9.738030    -29.249903    46.240276    0.000000    0.000000    0.000000    -2.185405    -26.331408    -4.331095    8.655965    17.297731    -11.072156    0.544254    24.343437    -6.282382    0.000000    0.000000    0.000000    
27.406740    157.567276    -101.977478    -6.807668    -5.619140    19.373705    -1.732960    2.571394    -2.257648    -13.277440    -1.598408    -0.950508    11.411266    3.153495    2.718871    6.850655    -5.332894    2.740055    6.363576    -5.795521    -16.492489    -20.662254    -33.400074    -32.847309    -27.690855    -44.001106    -96.161774    -57.224636    -43.094059    -55.101135    -11.331193    1.975130    -6.837072    16.798967    22.414095    11.240655    15.515018    12.194166    0.332205    24.175014    16.094927    18.820797    15.375792    2.090179    7.793564    -12.170934    32.623848    -13.856889    9.841011    -29.152817    46.274693    0.000000    0.000000    0.000000    -2.460453    -26.277803    -4.378610    8.603340    17.235983    -11.020895    0.572778    24.225231    -6.407847    0.000000    0.000000    0.000000    
27.642405    157.569824    -102.038048    -6.649328    -5.558797    19.501726    -1.551068    2.522161    -2.282642    -13.133928    -1.577988    -0.952949    11.462405    3.241625    2.733747    7.032155    -5.236559    2.786923    6.493836    -5.723562    -16.465147    -20.628176    -33.210415    -32.826149    -27.503857    -44.269737    -96.225311    -57.408531    -43.150154    -55.049637    -11.279545    1.941607    -6.847641    16.726517    22.363499    11.214090    15.533809    12.269257    0.296336    24.119144    16.149488    18.751757    15.096124    2.132944    7.623196    -12.173427    32.438953    -13.851894    9.943310    -29.048780    46.296616    0.000000    0.000000    0.000000    -2.702208    -26.211998    -4.387733    8.538212    17.158262    -11.016932    0.636376    24.100649    -6.509829    0.000000    0.000000    0.000000    
27.880484    157.567795    -102.094887    -6.489495    -5.509026    19.619471    -1.379479    2.474605    -2.299638    -12.963841    -1.536192    -0.950158    11.522542    3.380012    2.730256    7.166617    -5.234959    2.815596    6.600647    -5.680437    -16.458601    -20.667601    -33.316029    -32.818840    -27.451044    -44.164059    -96.116028    -57.555275    -42.821262    -55.130852    -11.245416    1.885521    -6.840303    16.708260    22.704309    11.132171    15.308141    12.054345    0.354788    24.272245    15.985457    18.887060    14.822009    2.188152    7.430723    -12.209343    32.253403    -13.829665    10.055850    -28.962761    46.351974    0.000000    0.000000    0.000000    -2.945999    -26.136608    -4.408614    8.477887    17.087633    -10.994021    0.689424    23.981060    -6.596765    0.000000    0.000000    0.000000    
